G04*
G04 #@! TF.GenerationSoftware,Altium Limited,Altium Designer,19.1.6 (110)*
G04*
G04 Layer_Color=8421504*
%FSLAX25Y25*%
%MOIN*%
G70*
G01*
G75*
%ADD10R,0.02362X0.03543*%
%ADD11R,0.10158X0.10158*%
%ADD12O,0.00630X0.02992*%
%ADD13O,0.02992X0.00630*%
%ADD14R,0.04528X0.07284*%
%ADD15R,0.05512X0.05709*%
%ADD16R,0.01181X0.04921*%
%ADD17R,0.05315X0.04724*%
%ADD18R,0.03740X0.05315*%
%ADD19R,0.01575X0.00984*%
%ADD20R,0.04724X0.05315*%
%ADD21R,0.02165X0.00945*%
%ADD22R,0.02756X0.00945*%
G04:AMPARAMS|DCode=23|XSize=55.12mil|YSize=129.92mil|CornerRadius=0mil|HoleSize=0mil|Usage=FLASHONLY|Rotation=50.000|XOffset=0mil|YOffset=0mil|HoleType=Round|Shape=Rectangle|*
%AMROTATEDRECTD23*
4,1,4,0.03205,-0.06287,-0.06748,0.02064,-0.03205,0.06287,0.06748,-0.02064,0.03205,-0.06287,0.0*
%
%ADD23ROTATEDRECTD23*%

G04:AMPARAMS|DCode=24|XSize=35.43mil|YSize=133.86mil|CornerRadius=0mil|HoleSize=0mil|Usage=FLASHONLY|Rotation=50.000|XOffset=0mil|YOffset=0mil|HoleType=Round|Shape=Rectangle|*
%AMROTATEDRECTD24*
4,1,4,0.03988,-0.05659,-0.06266,0.02945,-0.03988,0.05659,0.06266,-0.02945,0.03988,-0.05659,0.0*
%
%ADD24ROTATEDRECTD24*%

G04:AMPARAMS|DCode=25|XSize=122.05mil|YSize=64.96mil|CornerRadius=0.1mil|HoleSize=0mil|Usage=FLASHONLY|Rotation=0.000|XOffset=0mil|YOffset=0mil|HoleType=Round|Shape=RoundedRectangle|*
%AMROUNDEDRECTD25*
21,1,0.12205,0.06476,0,0,0.0*
21,1,0.12185,0.06496,0,0,0.0*
1,1,0.00020,0.06093,-0.03238*
1,1,0.00020,-0.06093,-0.03238*
1,1,0.00020,-0.06093,0.03238*
1,1,0.00020,0.06093,0.03238*
%
%ADD25ROUNDEDRECTD25*%
G04:AMPARAMS|DCode=26|XSize=31.5mil|YSize=64.96mil|CornerRadius=0mil|HoleSize=0mil|Usage=FLASHONLY|Rotation=0.000|XOffset=0mil|YOffset=0mil|HoleType=Round|Shape=RoundedRectangle|*
%AMROUNDEDRECTD26*
21,1,0.03150,0.06496,0,0,0.0*
21,1,0.03150,0.06496,0,0,0.0*
1,1,0.00000,0.01575,-0.03248*
1,1,0.00000,-0.01575,-0.03248*
1,1,0.00000,-0.01575,0.03248*
1,1,0.00000,0.01575,0.03248*
%
%ADD26ROUNDEDRECTD26*%
%ADD27R,0.04409X0.04528*%
%ADD28R,0.05709X0.05512*%
%ADD29R,0.05709X0.05118*%
%ADD30R,0.03347X0.03543*%
%ADD31R,0.03543X0.03347*%
%ADD32R,0.15354X0.15354*%
%ADD33R,0.02756X0.03150*%
%ADD34R,0.05315X0.03740*%
%ADD35R,0.05512X0.03347*%
%ADD36R,0.09000X0.02300*%
%ADD37R,0.05512X0.05512*%
%ADD38R,0.03937X0.02165*%
%ADD39R,0.05315X0.04134*%
%ADD40R,0.05315X0.04331*%
%ADD41R,0.05512X0.05118*%
%ADD42R,0.01102X0.03102*%
%ADD43R,0.01106X0.03106*%
%ADD44R,0.03106X0.01106*%
%ADD45R,0.04331X0.04921*%
%ADD46R,0.04331X0.05709*%
%ADD47R,0.04331X0.05709*%
D10*
X57575Y-84835D02*
D03*
X54425D02*
D03*
Y-89165D02*
D03*
X57575D02*
D03*
X1575Y-2165D02*
D03*
X-1575D02*
D03*
Y2165D02*
D03*
X1575D02*
D03*
D11*
X-43500Y-143401D02*
D03*
D12*
X-48421Y-135330D02*
D03*
X-46453D02*
D03*
X-44484D02*
D03*
X-42516D02*
D03*
X-40547D02*
D03*
X-38579D02*
D03*
Y-151472D02*
D03*
X-40547D02*
D03*
X-42516D02*
D03*
X-44484D02*
D03*
X-46453D02*
D03*
X-48421D02*
D03*
D13*
X-35429Y-138480D02*
D03*
Y-140448D02*
D03*
Y-142417D02*
D03*
Y-144385D02*
D03*
Y-146354D02*
D03*
Y-148322D02*
D03*
X-51571D02*
D03*
Y-146354D02*
D03*
Y-144385D02*
D03*
Y-142417D02*
D03*
Y-140448D02*
D03*
Y-138480D02*
D03*
D14*
X27165Y-148224D02*
D03*
Y-138578D02*
D03*
X-23976Y-148224D02*
D03*
Y-138578D02*
D03*
D15*
X3937Y-190748D02*
D03*
X-3937D02*
D03*
D16*
X5118Y-180118D02*
D03*
X2559D02*
D03*
X0D02*
D03*
X-2559D02*
D03*
X-5118D02*
D03*
D17*
X40197Y-140251D02*
D03*
Y-146551D02*
D03*
X-82677Y94350D02*
D03*
Y100650D02*
D03*
X82677Y-115055D02*
D03*
Y-108755D02*
D03*
D18*
X71161Y111000D02*
D03*
X78445D02*
D03*
X45571D02*
D03*
X52854D02*
D03*
X-68602Y124303D02*
D03*
X-61319D02*
D03*
X-79035Y151500D02*
D03*
X-86319D02*
D03*
X-58760Y-5000D02*
D03*
X-51476Y-5000D02*
D03*
X45571Y165000D02*
D03*
X52854D02*
D03*
X45571Y151500D02*
D03*
X52854D02*
D03*
Y138000D02*
D03*
X45571D02*
D03*
D19*
X70768Y121161D02*
D03*
Y123721D02*
D03*
Y126279D02*
D03*
Y128839D02*
D03*
X78839Y128839D02*
D03*
Y126279D02*
D03*
Y123721D02*
D03*
Y121161D02*
D03*
D20*
X46063Y84000D02*
D03*
X52362D02*
D03*
X46063Y97500D02*
D03*
X52362D02*
D03*
X-51968Y7750D02*
D03*
X-58268D02*
D03*
X-51968Y20500D02*
D03*
X-58268D02*
D03*
X77953Y97500D02*
D03*
X71653D02*
D03*
X77953Y84000D02*
D03*
X71653D02*
D03*
X77953Y165000D02*
D03*
X71653D02*
D03*
D21*
X60532Y-83263D02*
D03*
Y-85822D02*
D03*
Y-88381D02*
D03*
Y-90940D02*
D03*
D22*
X48425Y-83263D02*
D03*
Y-85822D02*
D03*
Y-88381D02*
D03*
Y-90940D02*
D03*
D23*
X151131Y-109597D02*
D03*
X134176Y-129804D02*
D03*
D24*
X127842Y-102133D02*
D03*
X122781Y-108165D02*
D03*
D25*
X0Y-155704D02*
D03*
D26*
X-9055Y-131098D02*
D03*
X0D02*
D03*
X9055D02*
D03*
D27*
X27165Y-92909D02*
D03*
Y-81295D02*
D03*
D28*
X-82677Y-146944D02*
D03*
Y-139858D02*
D03*
X-66535Y-146944D02*
D03*
Y-139858D02*
D03*
D29*
X-23976Y-175394D02*
D03*
Y-182874D02*
D03*
D30*
X-33760Y162520D02*
D03*
Y157520D02*
D03*
Y152520D02*
D03*
Y147520D02*
D03*
Y142520D02*
D03*
Y137520D02*
D03*
Y132520D02*
D03*
Y127520D02*
D03*
Y122520D02*
D03*
Y117520D02*
D03*
Y112520D02*
D03*
Y107520D02*
D03*
Y102520D02*
D03*
Y97520D02*
D03*
X-12500Y93386D02*
D03*
X33760Y97520D02*
D03*
Y102520D02*
D03*
Y107520D02*
D03*
Y112520D02*
D03*
Y117520D02*
D03*
Y122520D02*
D03*
Y127520D02*
D03*
Y132520D02*
D03*
Y137520D02*
D03*
Y142520D02*
D03*
Y147520D02*
D03*
Y152520D02*
D03*
Y157520D02*
D03*
Y162520D02*
D03*
D31*
X-22500Y93386D02*
D03*
X-17500D02*
D03*
X-7500D02*
D03*
X-2500D02*
D03*
X2500D02*
D03*
X7500D02*
D03*
X12500D02*
D03*
X17500D02*
D03*
X22500D02*
D03*
D32*
X0Y133445D02*
D03*
D33*
X-78937Y128240D02*
D03*
X-86417D02*
D03*
X-82677Y120366D02*
D03*
X-68701Y147563D02*
D03*
X-61221D02*
D03*
X-64961Y155437D02*
D03*
D34*
X-43500Y161358D02*
D03*
Y168642D02*
D03*
X54331Y-147043D02*
D03*
Y-139759D02*
D03*
D35*
X-64961Y89331D02*
D03*
Y105669D02*
D03*
D36*
X19150Y-31500D02*
D03*
Y-26500D02*
D03*
Y-21500D02*
D03*
Y-16500D02*
D03*
Y-11500D02*
D03*
Y-6500D02*
D03*
Y-1500D02*
D03*
Y3500D02*
D03*
Y8500D02*
D03*
Y13500D02*
D03*
Y18500D02*
D03*
Y23500D02*
D03*
X-18150D02*
D03*
Y18500D02*
D03*
Y13500D02*
D03*
Y8500D02*
D03*
Y3500D02*
D03*
Y-1500D02*
D03*
Y-6500D02*
D03*
Y-11500D02*
D03*
Y-16500D02*
D03*
Y-21500D02*
D03*
Y-26500D02*
D03*
Y-31500D02*
D03*
D37*
X33307Y-179134D02*
D03*
X47087D02*
D03*
D38*
X59055Y-115645D02*
D03*
Y-111905D02*
D03*
Y-108165D02*
D03*
X49606D02*
D03*
Y-115645D02*
D03*
D39*
X68465Y-139956D02*
D03*
Y-146846D02*
D03*
X-96457Y100945D02*
D03*
Y94055D02*
D03*
D40*
X-23976Y53740D02*
D03*
Y60433D02*
D03*
X27165Y60433D02*
D03*
Y53740D02*
D03*
D41*
X-110236Y103405D02*
D03*
Y91594D02*
D03*
D42*
X78740Y149020D02*
D03*
D43*
X76772D02*
D03*
X74803D02*
D03*
X72835D02*
D03*
X70866D02*
D03*
Y138980D02*
D03*
X72835D02*
D03*
X74803D02*
D03*
X76772D02*
D03*
X78740D02*
D03*
D44*
X69784Y145968D02*
D03*
Y144000D02*
D03*
Y142032D02*
D03*
X79823D02*
D03*
Y144000D02*
D03*
Y145968D02*
D03*
D45*
X45866Y124303D02*
D03*
X52559D02*
D03*
D46*
X11417Y-190748D02*
D03*
D47*
X-11417Y-190748D02*
D03*
M02*
